<mxfile host="Electron" agent="Mozilla/5.0 (Windows NT 10.0; Win64; x64) AppleWebKit/537.36 (KHTML, like Gecko) draw.io/24.7.17 Chrome/128.0.6613.36 Electron/32.0.1 Safari/537.36" version="24.7.17" pages="3">
  <diagram name="Страница — 1" id="cfMz1B1037dc99auOzqI">
    <mxGraphModel dx="674" dy="1199" grid="1" gridSize="10" guides="1" tooltips="1" connect="1" arrows="1" fold="1" page="1" pageScale="1" pageWidth="1169" pageHeight="827" math="0" shadow="0">
      <root>
        <mxCell id="0" />
        <mxCell id="1" parent="0" />
        <mxCell id="ZYFznnXL1SsV9UCFpAr4-14" style="edgeStyle=orthogonalEdgeStyle;rounded=0;sketch=1;hachureGap=4;jiggle=2;curveFitting=1;orthogonalLoop=1;jettySize=auto;html=1;exitX=0.25;exitY=0;exitDx=0;exitDy=0;entryX=0.5;entryY=1;entryDx=0;entryDy=0;strokeColor=#457B9D;fontFamily=Architects Daughter;fontSource=https%3A%2F%2Ffonts.googleapis.com%2Fcss%3Ffamily%3DArchitects%2BDaughter;fontColor=#1D3557;fillColor=#A8DADC;curved=1;" edge="1" parent="1" source="ZYFznnXL1SsV9UCFpAr4-2" target="ZYFznnXL1SsV9UCFpAr4-5">
          <mxGeometry relative="1" as="geometry" />
        </mxCell>
        <mxCell id="ZYFznnXL1SsV9UCFpAr4-31" style="edgeStyle=orthogonalEdgeStyle;rounded=0;sketch=1;hachureGap=4;jiggle=2;curveFitting=1;orthogonalLoop=1;jettySize=auto;html=1;exitX=0.25;exitY=1;exitDx=0;exitDy=0;entryX=0.5;entryY=0;entryDx=0;entryDy=0;strokeColor=#457B9D;fontFamily=Architects Daughter;fontSource=https%3A%2F%2Ffonts.googleapis.com%2Fcss%3Ffamily%3DArchitects%2BDaughter;fontColor=#1D3557;fillColor=#A8DADC;curved=1;" edge="1" parent="1" source="ZYFznnXL1SsV9UCFpAr4-2" target="ZYFznnXL1SsV9UCFpAr4-15">
          <mxGeometry relative="1" as="geometry" />
        </mxCell>
        <mxCell id="ZYFznnXL1SsV9UCFpAr4-39" style="edgeStyle=orthogonalEdgeStyle;rounded=0;sketch=1;hachureGap=4;jiggle=2;curveFitting=1;orthogonalLoop=1;jettySize=auto;html=1;exitX=0.75;exitY=1;exitDx=0;exitDy=0;entryX=0.5;entryY=0;entryDx=0;entryDy=0;strokeColor=#457B9D;fontFamily=Architects Daughter;fontSource=https%3A%2F%2Ffonts.googleapis.com%2Fcss%3Ffamily%3DArchitects%2BDaughter;fontColor=#1D3557;fillColor=#A8DADC;curved=1;" edge="1" parent="1" source="ZYFznnXL1SsV9UCFpAr4-2" target="ZYFznnXL1SsV9UCFpAr4-32">
          <mxGeometry relative="1" as="geometry" />
        </mxCell>
        <mxCell id="ZYFznnXL1SsV9UCFpAr4-2" value="&lt;font style=&quot;font-size: 27px;&quot;&gt;Структура сайта&lt;/font&gt;" style="rounded=1;whiteSpace=wrap;html=1;arcSize=44;fillColor=#A8DADC;strokeColor=#457B9D;fontFamily=Helvetica;sketch=1;curveFitting=1;jiggle=2;labelBackgroundColor=none;fontColor=#1D3557;" vertex="1" parent="1">
          <mxGeometry x="385" y="384" width="400" height="60" as="geometry" />
        </mxCell>
        <mxCell id="ZYFznnXL1SsV9UCFpAr4-5" value="&lt;font style=&quot;font-size: 18px;&quot;&gt;Главная страница&lt;/font&gt;" style="swimlane;fontStyle=0;childLayout=stackLayout;horizontal=1;startSize=26;fillColor=none;horizontalStack=0;resizeParent=1;resizeParentMax=0;resizeLast=0;collapsible=1;marginBottom=0;html=1;rounded=1;arcSize=21;fontFamily=Helvetica;fontSize=12;sketch=1;curveFitting=1;jiggle=2;labelBackgroundColor=none;strokeColor=#457B9D;fontColor=#1D3557;" vertex="1" parent="1">
          <mxGeometry x="175" y="130" width="210" height="188" as="geometry" />
        </mxCell>
        <mxCell id="ZYFznnXL1SsV9UCFpAr4-6" value="Шапка сайта" style="text;strokeColor=none;fillColor=none;align=center;verticalAlign=middle;spacingLeft=4;spacingRight=4;overflow=hidden;rotatable=0;points=[[0,0.5],[1,0.5]];portConstraint=eastwest;fontFamily=Helvetica;fontSize=14;fontColor=#1D3557;labelBackgroundColor=none;labelBorderColor=none;textShadow=0;whiteSpace=wrap;html=1;rounded=1;sketch=1;curveFitting=1;jiggle=2;" vertex="1" parent="ZYFznnXL1SsV9UCFpAr4-5">
          <mxGeometry y="26" width="210" height="26" as="geometry" />
        </mxCell>
        <mxCell id="ZYFznnXL1SsV9UCFpAr4-7" value="Рекламная секция" style="text;strokeColor=none;fillColor=none;align=center;verticalAlign=middle;spacingLeft=4;spacingRight=4;overflow=hidden;rotatable=0;points=[[0,0.5],[1,0.5]];portConstraint=eastwest;fontFamily=Helvetica;fontSize=14;fontColor=#1D3557;labelBackgroundColor=none;labelBorderColor=none;textShadow=0;whiteSpace=wrap;html=1;rounded=1;sketch=1;curveFitting=1;jiggle=2;" vertex="1" parent="ZYFznnXL1SsV9UCFpAr4-5">
          <mxGeometry y="52" width="210" height="26" as="geometry" />
        </mxCell>
        <mxCell id="ZYFznnXL1SsV9UCFpAr4-8" value="Популярные товары (сетка)" style="text;strokeColor=none;fillColor=none;align=center;verticalAlign=middle;spacingLeft=4;spacingRight=4;overflow=hidden;rotatable=0;points=[[0,0.5],[1,0.5]];portConstraint=eastwest;fontFamily=Helvetica;fontSize=14;labelBackgroundColor=none;labelBorderColor=none;textShadow=0;whiteSpace=wrap;html=1;rounded=1;sketch=1;curveFitting=1;jiggle=2;fontColor=#1D3557;" vertex="1" parent="ZYFznnXL1SsV9UCFpAr4-5">
          <mxGeometry y="78" width="210" height="32" as="geometry" />
        </mxCell>
        <mxCell id="ZYFznnXL1SsV9UCFpAr4-9" value="Баннеры" style="text;strokeColor=none;fillColor=none;align=center;verticalAlign=middle;spacingLeft=4;spacingRight=4;overflow=hidden;rotatable=0;points=[[0,0.5],[1,0.5]];portConstraint=eastwest;fontFamily=Helvetica;fontSize=14;labelBackgroundColor=none;labelBorderColor=none;textShadow=0;whiteSpace=wrap;html=1;rounded=1;sketch=1;curveFitting=1;jiggle=2;fontColor=#1D3557;" vertex="1" parent="ZYFznnXL1SsV9UCFpAr4-5">
          <mxGeometry y="110" width="210" height="26" as="geometry" />
        </mxCell>
        <mxCell id="ZYFznnXL1SsV9UCFpAr4-10" value="Актуальные товары (сетка)" style="text;strokeColor=none;fillColor=none;align=center;verticalAlign=middle;spacingLeft=4;spacingRight=4;overflow=hidden;rotatable=0;points=[[0,0.5],[1,0.5]];portConstraint=eastwest;fontFamily=Helvetica;fontSize=14;labelBackgroundColor=none;labelBorderColor=none;textShadow=0;whiteSpace=wrap;html=1;rounded=1;sketch=1;curveFitting=1;jiggle=2;fontColor=#1D3557;" vertex="1" parent="ZYFznnXL1SsV9UCFpAr4-5">
          <mxGeometry y="136" width="210" height="26" as="geometry" />
        </mxCell>
        <mxCell id="ZYFznnXL1SsV9UCFpAr4-11" value="Футер" style="text;strokeColor=none;fillColor=none;align=center;verticalAlign=middle;spacingLeft=4;spacingRight=4;overflow=hidden;rotatable=0;points=[[0,0.5],[1,0.5]];portConstraint=eastwest;fontFamily=Helvetica;fontSize=14;labelBackgroundColor=none;labelBorderColor=none;textShadow=0;whiteSpace=wrap;html=1;rounded=1;sketch=1;curveFitting=1;jiggle=2;fontColor=#1D3557;" vertex="1" parent="ZYFznnXL1SsV9UCFpAr4-5">
          <mxGeometry y="162" width="210" height="26" as="geometry" />
        </mxCell>
        <mxCell id="ZYFznnXL1SsV9UCFpAr4-15" value="&lt;font style=&quot;font-size: 18px;&quot;&gt;Каталог товаров&lt;/font&gt;" style="swimlane;fontStyle=0;childLayout=stackLayout;horizontal=1;startSize=26;fillColor=none;horizontalStack=0;resizeParent=1;resizeParentMax=0;resizeLast=0;collapsible=1;marginBottom=0;html=1;rounded=1;arcSize=21;fontFamily=Helvetica;fontSize=12;sketch=1;curveFitting=1;jiggle=2;labelBackgroundColor=none;strokeColor=#457B9D;fontColor=#1D3557;" vertex="1" parent="1">
          <mxGeometry x="175" y="520" width="210" height="110" as="geometry" />
        </mxCell>
        <mxCell id="ZYFznnXL1SsV9UCFpAr4-16" value="Фильтры" style="text;strokeColor=none;fillColor=none;align=center;verticalAlign=middle;spacingLeft=4;spacingRight=4;overflow=hidden;rotatable=0;points=[[0,0.5],[1,0.5]];portConstraint=eastwest;fontFamily=Helvetica;fontSize=14;fontColor=#1D3557;labelBackgroundColor=none;labelBorderColor=none;textShadow=0;whiteSpace=wrap;html=1;rounded=1;sketch=1;curveFitting=1;jiggle=2;" vertex="1" parent="ZYFznnXL1SsV9UCFpAr4-15">
          <mxGeometry y="26" width="210" height="26" as="geometry" />
        </mxCell>
        <mxCell id="ZYFznnXL1SsV9UCFpAr4-17" value="Сетка товаров" style="text;strokeColor=none;fillColor=none;align=center;verticalAlign=middle;spacingLeft=4;spacingRight=4;overflow=hidden;rotatable=0;points=[[0,0.5],[1,0.5]];portConstraint=eastwest;fontFamily=Helvetica;fontSize=14;fontColor=#1D3557;labelBackgroundColor=none;labelBorderColor=none;textShadow=0;whiteSpace=wrap;html=1;rounded=1;sketch=1;curveFitting=1;jiggle=2;" vertex="1" parent="ZYFznnXL1SsV9UCFpAr4-15">
          <mxGeometry y="52" width="210" height="26" as="geometry" />
        </mxCell>
        <mxCell id="ZYFznnXL1SsV9UCFpAr4-18" value="Навигация (хлебные крошки)" style="text;strokeColor=none;fillColor=none;align=center;verticalAlign=middle;spacingLeft=4;spacingRight=4;overflow=hidden;rotatable=0;points=[[0,0.5],[1,0.5]];portConstraint=eastwest;fontFamily=Helvetica;fontSize=14;labelBackgroundColor=none;labelBorderColor=none;textShadow=0;whiteSpace=wrap;html=1;rounded=1;sketch=1;curveFitting=1;jiggle=2;fontColor=#1D3557;" vertex="1" parent="ZYFznnXL1SsV9UCFpAr4-15">
          <mxGeometry y="78" width="210" height="32" as="geometry" />
        </mxCell>
        <mxCell id="ZYFznnXL1SsV9UCFpAr4-23" value="&lt;font style=&quot;font-size: 18px;&quot;&gt;Страница товара&lt;/font&gt;" style="swimlane;fontStyle=0;childLayout=stackLayout;horizontal=1;startSize=26;fillColor=none;horizontalStack=0;resizeParent=1;resizeParentMax=0;resizeLast=0;collapsible=1;marginBottom=0;html=1;rounded=1;arcSize=21;fontFamily=Helvetica;fontSize=12;sketch=1;curveFitting=1;jiggle=2;labelBackgroundColor=none;strokeColor=#457B9D;fontColor=#1D3557;" vertex="1" parent="1">
          <mxGeometry x="785" y="148" width="210" height="152" as="geometry" />
        </mxCell>
        <mxCell id="ZYFznnXL1SsV9UCFpAr4-24" value="Изображение товара" style="text;strokeColor=none;fillColor=none;align=center;verticalAlign=middle;spacingLeft=4;spacingRight=4;overflow=hidden;rotatable=0;points=[[0,0.5],[1,0.5]];portConstraint=eastwest;fontFamily=Helvetica;fontSize=14;fontColor=#1D3557;labelBackgroundColor=none;labelBorderColor=none;textShadow=0;whiteSpace=wrap;html=1;rounded=1;sketch=1;curveFitting=1;jiggle=2;" vertex="1" parent="ZYFznnXL1SsV9UCFpAr4-23">
          <mxGeometry y="26" width="210" height="26" as="geometry" />
        </mxCell>
        <mxCell id="ZYFznnXL1SsV9UCFpAr4-25" value="Кнопки действий" style="text;strokeColor=none;fillColor=none;align=center;verticalAlign=middle;spacingLeft=4;spacingRight=4;overflow=hidden;rotatable=0;points=[[0,0.5],[1,0.5]];portConstraint=eastwest;fontFamily=Helvetica;fontSize=14;fontColor=#1D3557;labelBackgroundColor=none;labelBorderColor=none;textShadow=0;whiteSpace=wrap;html=1;rounded=1;sketch=1;curveFitting=1;jiggle=2;" vertex="1" parent="ZYFznnXL1SsV9UCFpAr4-23">
          <mxGeometry y="52" width="210" height="26" as="geometry" />
        </mxCell>
        <mxCell id="ZYFznnXL1SsV9UCFpAr4-26" value="Информация о способах покупки" style="text;strokeColor=none;fillColor=none;align=center;verticalAlign=middle;spacingLeft=4;spacingRight=4;overflow=hidden;rotatable=0;points=[[0,0.5],[1,0.5]];portConstraint=eastwest;fontFamily=Helvetica;fontSize=14;labelBackgroundColor=none;labelBorderColor=none;textShadow=0;whiteSpace=wrap;html=1;rounded=1;sketch=1;curveFitting=1;jiggle=2;fontColor=#1D3557;" vertex="1" parent="ZYFznnXL1SsV9UCFpAr4-23">
          <mxGeometry y="78" width="210" height="42" as="geometry" />
        </mxCell>
        <mxCell id="ZYFznnXL1SsV9UCFpAr4-28" value="Дополнительная информация" style="text;strokeColor=none;fillColor=none;align=center;verticalAlign=middle;spacingLeft=4;spacingRight=4;overflow=hidden;rotatable=0;points=[[0,0.5],[1,0.5]];portConstraint=eastwest;fontFamily=Helvetica;fontSize=14;labelBackgroundColor=none;labelBorderColor=none;textShadow=0;whiteSpace=wrap;html=1;rounded=1;sketch=1;curveFitting=1;jiggle=2;fontColor=#1D3557;" vertex="1" parent="ZYFznnXL1SsV9UCFpAr4-23">
          <mxGeometry y="120" width="210" height="32" as="geometry" />
        </mxCell>
        <mxCell id="ZYFznnXL1SsV9UCFpAr4-30" style="edgeStyle=orthogonalEdgeStyle;rounded=0;sketch=1;hachureGap=4;jiggle=2;curveFitting=1;orthogonalLoop=1;jettySize=auto;html=1;exitX=0.75;exitY=0;exitDx=0;exitDy=0;entryX=0.528;entryY=1.013;entryDx=0;entryDy=0;entryPerimeter=0;strokeColor=#457B9D;fontFamily=Architects Daughter;fontSource=https%3A%2F%2Ffonts.googleapis.com%2Fcss%3Ffamily%3DArchitects%2BDaughter;fontColor=#1D3557;fillColor=#A8DADC;curved=1;" edge="1" parent="1" source="ZYFznnXL1SsV9UCFpAr4-2" target="ZYFznnXL1SsV9UCFpAr4-28">
          <mxGeometry relative="1" as="geometry" />
        </mxCell>
        <mxCell id="ZYFznnXL1SsV9UCFpAr4-32" value="&lt;font style=&quot;font-size: 18px;&quot;&gt;Личный кабинет&lt;/font&gt;" style="swimlane;fontStyle=0;childLayout=stackLayout;horizontal=1;startSize=26;fillColor=none;horizontalStack=0;resizeParent=1;resizeParentMax=0;resizeLast=0;collapsible=1;marginBottom=0;html=1;rounded=1;arcSize=21;fontFamily=Helvetica;fontSize=12;sketch=1;curveFitting=1;jiggle=2;labelBackgroundColor=none;strokeColor=#457B9D;fontColor=#1D3557;" vertex="1" parent="1">
          <mxGeometry x="785" y="520" width="210" height="110" as="geometry" />
        </mxCell>
        <mxCell id="ZYFznnXL1SsV9UCFpAr4-33" value="Профиль пользователя" style="text;strokeColor=none;fillColor=none;align=center;verticalAlign=middle;spacingLeft=4;spacingRight=4;overflow=hidden;rotatable=0;points=[[0,0.5],[1,0.5]];portConstraint=eastwest;fontFamily=Helvetica;fontSize=14;fontColor=#1D3557;labelBackgroundColor=none;labelBorderColor=none;textShadow=0;whiteSpace=wrap;html=1;rounded=1;sketch=1;curveFitting=1;jiggle=2;" vertex="1" parent="ZYFznnXL1SsV9UCFpAr4-32">
          <mxGeometry y="26" width="210" height="26" as="geometry" />
        </mxCell>
        <mxCell id="ZYFznnXL1SsV9UCFpAr4-34" value="История заказов" style="text;strokeColor=none;fillColor=none;align=center;verticalAlign=middle;spacingLeft=4;spacingRight=4;overflow=hidden;rotatable=0;points=[[0,0.5],[1,0.5]];portConstraint=eastwest;fontFamily=Helvetica;fontSize=14;fontColor=#1D3557;labelBackgroundColor=none;labelBorderColor=none;textShadow=0;whiteSpace=wrap;html=1;rounded=1;sketch=1;curveFitting=1;jiggle=2;" vertex="1" parent="ZYFznnXL1SsV9UCFpAr4-32">
          <mxGeometry y="52" width="210" height="26" as="geometry" />
        </mxCell>
        <mxCell id="ZYFznnXL1SsV9UCFpAr4-35" value="Избранное" style="text;strokeColor=none;fillColor=none;align=center;verticalAlign=middle;spacingLeft=4;spacingRight=4;overflow=hidden;rotatable=0;points=[[0,0.5],[1,0.5]];portConstraint=eastwest;fontFamily=Helvetica;fontSize=14;labelBackgroundColor=none;labelBorderColor=none;textShadow=0;whiteSpace=wrap;html=1;rounded=1;sketch=1;curveFitting=1;jiggle=2;fontColor=#1D3557;" vertex="1" parent="ZYFznnXL1SsV9UCFpAr4-32">
          <mxGeometry y="78" width="210" height="32" as="geometry" />
        </mxCell>
      </root>
    </mxGraphModel>
  </diagram>
  <diagram id="JF7GCAIlmqGJFs5VyR6K" name="Страница — 2">
    <mxGraphModel dx="1724" dy="987" grid="1" gridSize="10" guides="1" tooltips="1" connect="1" arrows="1" fold="1" page="1" pageScale="1" pageWidth="1169" pageHeight="827" math="0" shadow="0">
      <root>
        <mxCell id="0" />
        <mxCell id="1" parent="0" />
        <mxCell id="FiGZa5fCqcaI1ObafUO0-14" value="Users" style="shape=table;startSize=30;container=1;collapsible=1;childLayout=tableLayout;fixedRows=1;rowLines=0;fontStyle=1;align=center;resizeLast=1;html=1;hachureGap=4;fontFamily=Helvetica;rounded=1;" vertex="1" parent="1">
          <mxGeometry x="-340" y="60" width="180" height="180" as="geometry" />
        </mxCell>
        <mxCell id="FiGZa5fCqcaI1ObafUO0-15" value="" style="shape=tableRow;horizontal=0;startSize=0;swimlaneHead=0;swimlaneBody=0;fillColor=none;collapsible=0;dropTarget=0;points=[[0,0.5],[1,0.5]];portConstraint=eastwest;top=0;left=0;right=0;bottom=1;hachureGap=4;strokeColor=#457B9D;fontFamily=Helvetica;fontColor=#1D3557;" vertex="1" parent="FiGZa5fCqcaI1ObafUO0-14">
          <mxGeometry y="30" width="180" height="30" as="geometry" />
        </mxCell>
        <mxCell id="FiGZa5fCqcaI1ObafUO0-16" value="PK" style="shape=partialRectangle;connectable=0;fillColor=none;top=0;left=0;bottom=0;right=0;fontStyle=1;overflow=hidden;whiteSpace=wrap;html=1;hachureGap=4;strokeColor=#457B9D;fontFamily=Helvetica;fontColor=#1D3557;" vertex="1" parent="FiGZa5fCqcaI1ObafUO0-15">
          <mxGeometry width="30" height="30" as="geometry">
            <mxRectangle width="30" height="30" as="alternateBounds" />
          </mxGeometry>
        </mxCell>
        <mxCell id="FiGZa5fCqcaI1ObafUO0-17" value="user_id" style="shape=partialRectangle;connectable=0;fillColor=none;top=0;left=0;bottom=0;right=0;align=left;spacingLeft=6;fontStyle=5;overflow=hidden;whiteSpace=wrap;html=1;hachureGap=4;strokeColor=#457B9D;fontFamily=Helvetica;fontColor=#1D3557;" vertex="1" parent="FiGZa5fCqcaI1ObafUO0-15">
          <mxGeometry x="30" width="150" height="30" as="geometry">
            <mxRectangle width="150" height="30" as="alternateBounds" />
          </mxGeometry>
        </mxCell>
        <mxCell id="FiGZa5fCqcaI1ObafUO0-18" value="" style="shape=tableRow;horizontal=0;startSize=0;swimlaneHead=0;swimlaneBody=0;fillColor=none;collapsible=0;dropTarget=0;points=[[0,0.5],[1,0.5]];portConstraint=eastwest;top=0;left=0;right=0;bottom=0;hachureGap=4;strokeColor=#457B9D;fontFamily=Helvetica;fontColor=#1D3557;" vertex="1" parent="FiGZa5fCqcaI1ObafUO0-14">
          <mxGeometry y="60" width="180" height="30" as="geometry" />
        </mxCell>
        <mxCell id="FiGZa5fCqcaI1ObafUO0-19" value="" style="shape=partialRectangle;connectable=0;fillColor=none;top=0;left=0;bottom=0;right=0;editable=1;overflow=hidden;whiteSpace=wrap;html=1;hachureGap=4;strokeColor=#457B9D;fontFamily=Helvetica;fontColor=#1D3557;" vertex="1" parent="FiGZa5fCqcaI1ObafUO0-18">
          <mxGeometry width="30" height="30" as="geometry">
            <mxRectangle width="30" height="30" as="alternateBounds" />
          </mxGeometry>
        </mxCell>
        <mxCell id="FiGZa5fCqcaI1ObafUO0-20" value="username" style="shape=partialRectangle;connectable=0;fillColor=none;top=0;left=0;bottom=0;right=0;align=left;spacingLeft=6;overflow=hidden;whiteSpace=wrap;html=1;hachureGap=4;strokeColor=#457B9D;fontFamily=Helvetica;fontColor=#1D3557;" vertex="1" parent="FiGZa5fCqcaI1ObafUO0-18">
          <mxGeometry x="30" width="150" height="30" as="geometry">
            <mxRectangle width="150" height="30" as="alternateBounds" />
          </mxGeometry>
        </mxCell>
        <mxCell id="FiGZa5fCqcaI1ObafUO0-21" value="" style="shape=tableRow;horizontal=0;startSize=0;swimlaneHead=0;swimlaneBody=0;fillColor=none;collapsible=0;dropTarget=0;points=[[0,0.5],[1,0.5]];portConstraint=eastwest;top=0;left=0;right=0;bottom=0;hachureGap=4;strokeColor=#457B9D;fontFamily=Helvetica;fontColor=#1D3557;" vertex="1" parent="FiGZa5fCqcaI1ObafUO0-14">
          <mxGeometry y="90" width="180" height="30" as="geometry" />
        </mxCell>
        <mxCell id="FiGZa5fCqcaI1ObafUO0-22" value="" style="shape=partialRectangle;connectable=0;fillColor=none;top=0;left=0;bottom=0;right=0;editable=1;overflow=hidden;whiteSpace=wrap;html=1;hachureGap=4;strokeColor=#457B9D;fontFamily=Helvetica;fontColor=#1D3557;" vertex="1" parent="FiGZa5fCqcaI1ObafUO0-21">
          <mxGeometry width="30" height="30" as="geometry">
            <mxRectangle width="30" height="30" as="alternateBounds" />
          </mxGeometry>
        </mxCell>
        <mxCell id="FiGZa5fCqcaI1ObafUO0-23" value="email" style="shape=partialRectangle;connectable=0;fillColor=none;top=0;left=0;bottom=0;right=0;align=left;spacingLeft=6;overflow=hidden;whiteSpace=wrap;html=1;hachureGap=4;strokeColor=#457B9D;fontFamily=Helvetica;fontColor=#1D3557;" vertex="1" parent="FiGZa5fCqcaI1ObafUO0-21">
          <mxGeometry x="30" width="150" height="30" as="geometry">
            <mxRectangle width="150" height="30" as="alternateBounds" />
          </mxGeometry>
        </mxCell>
        <mxCell id="FiGZa5fCqcaI1ObafUO0-24" value="" style="shape=tableRow;horizontal=0;startSize=0;swimlaneHead=0;swimlaneBody=0;fillColor=none;collapsible=0;dropTarget=0;points=[[0,0.5],[1,0.5]];portConstraint=eastwest;top=0;left=0;right=0;bottom=0;hachureGap=4;strokeColor=#457B9D;fontFamily=Helvetica;fontColor=#1D3557;" vertex="1" parent="FiGZa5fCqcaI1ObafUO0-14">
          <mxGeometry y="120" width="180" height="30" as="geometry" />
        </mxCell>
        <mxCell id="FiGZa5fCqcaI1ObafUO0-25" value="" style="shape=partialRectangle;connectable=0;fillColor=none;top=0;left=0;bottom=0;right=0;editable=1;overflow=hidden;whiteSpace=wrap;html=1;hachureGap=4;strokeColor=#457B9D;fontFamily=Helvetica;fontColor=#1D3557;" vertex="1" parent="FiGZa5fCqcaI1ObafUO0-24">
          <mxGeometry width="30" height="30" as="geometry">
            <mxRectangle width="30" height="30" as="alternateBounds" />
          </mxGeometry>
        </mxCell>
        <mxCell id="FiGZa5fCqcaI1ObafUO0-26" value="phone" style="shape=partialRectangle;connectable=0;fillColor=none;top=0;left=0;bottom=0;right=0;align=left;spacingLeft=6;overflow=hidden;whiteSpace=wrap;html=1;hachureGap=4;strokeColor=#457B9D;fontFamily=Helvetica;fontColor=#1D3557;" vertex="1" parent="FiGZa5fCqcaI1ObafUO0-24">
          <mxGeometry x="30" width="150" height="30" as="geometry">
            <mxRectangle width="150" height="30" as="alternateBounds" />
          </mxGeometry>
        </mxCell>
        <mxCell id="FiGZa5fCqcaI1ObafUO0-27" value="" style="shape=tableRow;horizontal=0;startSize=0;swimlaneHead=0;swimlaneBody=0;fillColor=none;collapsible=0;dropTarget=0;points=[[0,0.5],[1,0.5]];portConstraint=eastwest;top=0;left=0;right=0;bottom=0;hachureGap=4;strokeColor=#457B9D;fontFamily=Helvetica;fontColor=#1D3557;" vertex="1" parent="FiGZa5fCqcaI1ObafUO0-14">
          <mxGeometry y="150" width="180" height="30" as="geometry" />
        </mxCell>
        <mxCell id="FiGZa5fCqcaI1ObafUO0-28" value="" style="shape=partialRectangle;connectable=0;fillColor=none;top=0;left=0;bottom=0;right=0;editable=1;overflow=hidden;whiteSpace=wrap;html=1;hachureGap=4;strokeColor=#457B9D;fontFamily=Helvetica;fontColor=#1D3557;" vertex="1" parent="FiGZa5fCqcaI1ObafUO0-27">
          <mxGeometry width="30" height="30" as="geometry">
            <mxRectangle width="30" height="30" as="alternateBounds" />
          </mxGeometry>
        </mxCell>
        <mxCell id="FiGZa5fCqcaI1ObafUO0-29" value="created_at" style="shape=partialRectangle;connectable=0;fillColor=none;top=0;left=0;bottom=0;right=0;align=left;spacingLeft=6;overflow=hidden;whiteSpace=wrap;html=1;hachureGap=4;strokeColor=#457B9D;fontFamily=Helvetica;fontColor=#1D3557;" vertex="1" parent="FiGZa5fCqcaI1ObafUO0-27">
          <mxGeometry x="30" width="150" height="30" as="geometry">
            <mxRectangle width="150" height="30" as="alternateBounds" />
          </mxGeometry>
        </mxCell>
        <mxCell id="FiGZa5fCqcaI1ObafUO0-30" value="Products" style="shape=table;startSize=30;container=1;collapsible=1;childLayout=tableLayout;fixedRows=1;rowLines=0;fontStyle=1;align=center;resizeLast=1;html=1;hachureGap=4;fontFamily=Helvetica;rounded=1;" vertex="1" parent="1">
          <mxGeometry x="-340" y="270" width="180" height="300" as="geometry" />
        </mxCell>
        <mxCell id="FiGZa5fCqcaI1ObafUO0-31" value="" style="shape=tableRow;horizontal=0;startSize=0;swimlaneHead=0;swimlaneBody=0;fillColor=none;collapsible=0;dropTarget=0;points=[[0,0.5],[1,0.5]];portConstraint=eastwest;top=0;left=0;right=0;bottom=1;hachureGap=4;strokeColor=#457B9D;fontFamily=Helvetica;fontColor=#1D3557;" vertex="1" parent="FiGZa5fCqcaI1ObafUO0-30">
          <mxGeometry y="30" width="180" height="30" as="geometry" />
        </mxCell>
        <mxCell id="FiGZa5fCqcaI1ObafUO0-32" value="PK" style="shape=partialRectangle;connectable=0;fillColor=none;top=0;left=0;bottom=0;right=0;fontStyle=1;overflow=hidden;whiteSpace=wrap;html=1;hachureGap=4;strokeColor=#457B9D;fontFamily=Helvetica;fontColor=#1D3557;" vertex="1" parent="FiGZa5fCqcaI1ObafUO0-31">
          <mxGeometry width="30" height="30" as="geometry">
            <mxRectangle width="30" height="30" as="alternateBounds" />
          </mxGeometry>
        </mxCell>
        <mxCell id="FiGZa5fCqcaI1ObafUO0-33" value="product_id" style="shape=partialRectangle;connectable=0;fillColor=none;top=0;left=0;bottom=0;right=0;align=left;spacingLeft=6;fontStyle=5;overflow=hidden;whiteSpace=wrap;html=1;hachureGap=4;strokeColor=#457B9D;fontFamily=Helvetica;fontColor=#1D3557;" vertex="1" parent="FiGZa5fCqcaI1ObafUO0-31">
          <mxGeometry x="30" width="150" height="30" as="geometry">
            <mxRectangle width="150" height="30" as="alternateBounds" />
          </mxGeometry>
        </mxCell>
        <mxCell id="FiGZa5fCqcaI1ObafUO0-37" value="" style="shape=tableRow;horizontal=0;startSize=0;swimlaneHead=0;swimlaneBody=0;fillColor=none;collapsible=0;dropTarget=0;points=[[0,0.5],[1,0.5]];portConstraint=eastwest;top=0;left=0;right=0;bottom=0;hachureGap=4;strokeColor=#457B9D;fontFamily=Helvetica;fontColor=#1D3557;" vertex="1" parent="FiGZa5fCqcaI1ObafUO0-30">
          <mxGeometry y="60" width="180" height="30" as="geometry" />
        </mxCell>
        <mxCell id="FiGZa5fCqcaI1ObafUO0-38" value="FK" style="shape=partialRectangle;connectable=0;fillColor=none;top=0;left=0;bottom=0;right=0;editable=1;overflow=hidden;whiteSpace=wrap;html=1;hachureGap=4;strokeColor=#457B9D;fontFamily=Helvetica;fontColor=#1D3557;" vertex="1" parent="FiGZa5fCqcaI1ObafUO0-37">
          <mxGeometry width="30" height="30" as="geometry">
            <mxRectangle width="30" height="30" as="alternateBounds" />
          </mxGeometry>
        </mxCell>
        <mxCell id="FiGZa5fCqcaI1ObafUO0-39" value="category_id" style="shape=partialRectangle;connectable=0;fillColor=none;top=0;left=0;bottom=0;right=0;align=left;spacingLeft=6;overflow=hidden;whiteSpace=wrap;html=1;hachureGap=4;strokeColor=#457B9D;fontFamily=Helvetica;fontColor=#1D3557;" vertex="1" parent="FiGZa5fCqcaI1ObafUO0-37">
          <mxGeometry x="30" width="150" height="30" as="geometry">
            <mxRectangle width="150" height="30" as="alternateBounds" />
          </mxGeometry>
        </mxCell>
        <mxCell id="FiGZa5fCqcaI1ObafUO0-40" value="" style="shape=tableRow;horizontal=0;startSize=0;swimlaneHead=0;swimlaneBody=0;fillColor=none;collapsible=0;dropTarget=0;points=[[0,0.5],[1,0.5]];portConstraint=eastwest;top=0;left=0;right=0;bottom=0;hachureGap=4;strokeColor=#457B9D;fontFamily=Helvetica;fontColor=#1D3557;" vertex="1" parent="FiGZa5fCqcaI1ObafUO0-30">
          <mxGeometry y="90" width="180" height="30" as="geometry" />
        </mxCell>
        <mxCell id="FiGZa5fCqcaI1ObafUO0-41" value="" style="shape=partialRectangle;connectable=0;fillColor=none;top=0;left=0;bottom=0;right=0;editable=1;overflow=hidden;whiteSpace=wrap;html=1;hachureGap=4;strokeColor=#457B9D;fontFamily=Helvetica;fontColor=#1D3557;" vertex="1" parent="FiGZa5fCqcaI1ObafUO0-40">
          <mxGeometry width="30" height="30" as="geometry">
            <mxRectangle width="30" height="30" as="alternateBounds" />
          </mxGeometry>
        </mxCell>
        <mxCell id="FiGZa5fCqcaI1ObafUO0-42" value="image_url" style="shape=partialRectangle;connectable=0;fillColor=none;top=0;left=0;bottom=0;right=0;align=left;spacingLeft=6;overflow=hidden;whiteSpace=wrap;html=1;hachureGap=4;strokeColor=#457B9D;fontFamily=Helvetica;fontColor=#1D3557;" vertex="1" parent="FiGZa5fCqcaI1ObafUO0-40">
          <mxGeometry x="30" width="150" height="30" as="geometry">
            <mxRectangle width="150" height="30" as="alternateBounds" />
          </mxGeometry>
        </mxCell>
        <mxCell id="FiGZa5fCqcaI1ObafUO0-43" value="" style="shape=tableRow;horizontal=0;startSize=0;swimlaneHead=0;swimlaneBody=0;fillColor=none;collapsible=0;dropTarget=0;points=[[0,0.5],[1,0.5]];portConstraint=eastwest;top=0;left=0;right=0;bottom=0;hachureGap=4;strokeColor=#457B9D;fontFamily=Helvetica;fontColor=#1D3557;" vertex="1" parent="FiGZa5fCqcaI1ObafUO0-30">
          <mxGeometry y="120" width="180" height="30" as="geometry" />
        </mxCell>
        <mxCell id="FiGZa5fCqcaI1ObafUO0-44" value="" style="shape=partialRectangle;connectable=0;fillColor=none;top=0;left=0;bottom=0;right=0;editable=1;overflow=hidden;whiteSpace=wrap;html=1;hachureGap=4;strokeColor=#457B9D;fontFamily=Helvetica;fontColor=#1D3557;" vertex="1" parent="FiGZa5fCqcaI1ObafUO0-43">
          <mxGeometry width="30" height="30" as="geometry">
            <mxRectangle width="30" height="30" as="alternateBounds" />
          </mxGeometry>
        </mxCell>
        <mxCell id="FiGZa5fCqcaI1ObafUO0-45" value="name" style="shape=partialRectangle;connectable=0;fillColor=none;top=0;left=0;bottom=0;right=0;align=left;spacingLeft=6;overflow=hidden;whiteSpace=wrap;html=1;hachureGap=4;strokeColor=#457B9D;fontFamily=Helvetica;fontColor=#1D3557;" vertex="1" parent="FiGZa5fCqcaI1ObafUO0-43">
          <mxGeometry x="30" width="150" height="30" as="geometry">
            <mxRectangle width="150" height="30" as="alternateBounds" />
          </mxGeometry>
        </mxCell>
        <mxCell id="FiGZa5fCqcaI1ObafUO0-46" value="" style="shape=tableRow;horizontal=0;startSize=0;swimlaneHead=0;swimlaneBody=0;fillColor=none;collapsible=0;dropTarget=0;points=[[0,0.5],[1,0.5]];portConstraint=eastwest;top=0;left=0;right=0;bottom=0;hachureGap=4;strokeColor=#457B9D;fontFamily=Helvetica;fontColor=#1D3557;" vertex="1" parent="FiGZa5fCqcaI1ObafUO0-30">
          <mxGeometry y="150" width="180" height="30" as="geometry" />
        </mxCell>
        <mxCell id="FiGZa5fCqcaI1ObafUO0-47" value="" style="shape=partialRectangle;connectable=0;fillColor=none;top=0;left=0;bottom=0;right=0;editable=1;overflow=hidden;whiteSpace=wrap;html=1;hachureGap=4;strokeColor=#457B9D;fontFamily=Helvetica;fontColor=#1D3557;" vertex="1" parent="FiGZa5fCqcaI1ObafUO0-46">
          <mxGeometry width="30" height="30" as="geometry">
            <mxRectangle width="30" height="30" as="alternateBounds" />
          </mxGeometry>
        </mxCell>
        <mxCell id="FiGZa5fCqcaI1ObafUO0-48" value="price" style="shape=partialRectangle;connectable=0;fillColor=none;top=0;left=0;bottom=0;right=0;align=left;spacingLeft=6;overflow=hidden;whiteSpace=wrap;html=1;hachureGap=4;strokeColor=#457B9D;fontFamily=Helvetica;fontColor=#1D3557;" vertex="1" parent="FiGZa5fCqcaI1ObafUO0-46">
          <mxGeometry x="30" width="150" height="30" as="geometry">
            <mxRectangle width="150" height="30" as="alternateBounds" />
          </mxGeometry>
        </mxCell>
        <mxCell id="FiGZa5fCqcaI1ObafUO0-174" value="" style="shape=tableRow;horizontal=0;startSize=0;swimlaneHead=0;swimlaneBody=0;fillColor=none;collapsible=0;dropTarget=0;points=[[0,0.5],[1,0.5]];portConstraint=eastwest;top=0;left=0;right=0;bottom=0;hachureGap=4;strokeColor=#457B9D;fontFamily=Helvetica;fontColor=#1D3557;" vertex="1" parent="FiGZa5fCqcaI1ObafUO0-30">
          <mxGeometry y="180" width="180" height="30" as="geometry" />
        </mxCell>
        <mxCell id="FiGZa5fCqcaI1ObafUO0-175" value="" style="shape=partialRectangle;connectable=0;fillColor=none;top=0;left=0;bottom=0;right=0;editable=1;overflow=hidden;whiteSpace=wrap;html=1;hachureGap=4;strokeColor=#457B9D;fontFamily=Helvetica;fontColor=#1D3557;" vertex="1" parent="FiGZa5fCqcaI1ObafUO0-174">
          <mxGeometry width="30" height="30" as="geometry">
            <mxRectangle width="30" height="30" as="alternateBounds" />
          </mxGeometry>
        </mxCell>
        <mxCell id="FiGZa5fCqcaI1ObafUO0-176" value="discount" style="shape=partialRectangle;connectable=0;fillColor=none;top=0;left=0;bottom=0;right=0;align=left;spacingLeft=6;overflow=hidden;whiteSpace=wrap;html=1;hachureGap=4;strokeColor=#457B9D;fontFamily=Helvetica;fontColor=#1D3557;" vertex="1" parent="FiGZa5fCqcaI1ObafUO0-174">
          <mxGeometry x="30" width="150" height="30" as="geometry">
            <mxRectangle width="150" height="30" as="alternateBounds" />
          </mxGeometry>
        </mxCell>
        <mxCell id="FiGZa5fCqcaI1ObafUO0-49" value="" style="shape=tableRow;horizontal=0;startSize=0;swimlaneHead=0;swimlaneBody=0;fillColor=none;collapsible=0;dropTarget=0;points=[[0,0.5],[1,0.5]];portConstraint=eastwest;top=0;left=0;right=0;bottom=0;hachureGap=4;strokeColor=#457B9D;fontFamily=Helvetica;fontColor=#1D3557;" vertex="1" parent="FiGZa5fCqcaI1ObafUO0-30">
          <mxGeometry y="210" width="180" height="30" as="geometry" />
        </mxCell>
        <mxCell id="FiGZa5fCqcaI1ObafUO0-50" value="" style="shape=partialRectangle;connectable=0;fillColor=none;top=0;left=0;bottom=0;right=0;editable=1;overflow=hidden;whiteSpace=wrap;html=1;hachureGap=4;strokeColor=#457B9D;fontFamily=Helvetica;fontColor=#1D3557;" vertex="1" parent="FiGZa5fCqcaI1ObafUO0-49">
          <mxGeometry width="30" height="30" as="geometry">
            <mxRectangle width="30" height="30" as="alternateBounds" />
          </mxGeometry>
        </mxCell>
        <mxCell id="FiGZa5fCqcaI1ObafUO0-51" value="description" style="shape=partialRectangle;connectable=0;fillColor=none;top=0;left=0;bottom=0;right=0;align=left;spacingLeft=6;overflow=hidden;whiteSpace=wrap;html=1;hachureGap=4;strokeColor=#457B9D;fontFamily=Helvetica;fontColor=#1D3557;" vertex="1" parent="FiGZa5fCqcaI1ObafUO0-49">
          <mxGeometry x="30" width="150" height="30" as="geometry">
            <mxRectangle width="150" height="30" as="alternateBounds" />
          </mxGeometry>
        </mxCell>
        <mxCell id="FiGZa5fCqcaI1ObafUO0-177" value="" style="shape=tableRow;horizontal=0;startSize=0;swimlaneHead=0;swimlaneBody=0;fillColor=none;collapsible=0;dropTarget=0;points=[[0,0.5],[1,0.5]];portConstraint=eastwest;top=0;left=0;right=0;bottom=0;hachureGap=4;strokeColor=#457B9D;fontFamily=Helvetica;fontColor=#1D3557;" vertex="1" parent="FiGZa5fCqcaI1ObafUO0-30">
          <mxGeometry y="240" width="180" height="30" as="geometry" />
        </mxCell>
        <mxCell id="FiGZa5fCqcaI1ObafUO0-178" value="" style="shape=partialRectangle;connectable=0;fillColor=none;top=0;left=0;bottom=0;right=0;editable=1;overflow=hidden;whiteSpace=wrap;html=1;hachureGap=4;strokeColor=#457B9D;fontFamily=Helvetica;fontColor=#1D3557;" vertex="1" parent="FiGZa5fCqcaI1ObafUO0-177">
          <mxGeometry width="30" height="30" as="geometry">
            <mxRectangle width="30" height="30" as="alternateBounds" />
          </mxGeometry>
        </mxCell>
        <mxCell id="FiGZa5fCqcaI1ObafUO0-179" value="rating" style="shape=partialRectangle;connectable=0;fillColor=none;top=0;left=0;bottom=0;right=0;align=left;spacingLeft=6;overflow=hidden;whiteSpace=wrap;html=1;hachureGap=4;strokeColor=#457B9D;fontFamily=Helvetica;fontColor=#1D3557;" vertex="1" parent="FiGZa5fCqcaI1ObafUO0-177">
          <mxGeometry x="30" width="150" height="30" as="geometry">
            <mxRectangle width="150" height="30" as="alternateBounds" />
          </mxGeometry>
        </mxCell>
        <mxCell id="FiGZa5fCqcaI1ObafUO0-180" value="" style="shape=tableRow;horizontal=0;startSize=0;swimlaneHead=0;swimlaneBody=0;fillColor=none;collapsible=0;dropTarget=0;points=[[0,0.5],[1,0.5]];portConstraint=eastwest;top=0;left=0;right=0;bottom=0;hachureGap=4;strokeColor=#457B9D;fontFamily=Helvetica;fontColor=#1D3557;" vertex="1" parent="FiGZa5fCqcaI1ObafUO0-30">
          <mxGeometry y="270" width="180" height="30" as="geometry" />
        </mxCell>
        <mxCell id="FiGZa5fCqcaI1ObafUO0-181" value="" style="shape=partialRectangle;connectable=0;fillColor=none;top=0;left=0;bottom=0;right=0;editable=1;overflow=hidden;whiteSpace=wrap;html=1;hachureGap=4;strokeColor=#457B9D;fontFamily=Helvetica;fontColor=#1D3557;" vertex="1" parent="FiGZa5fCqcaI1ObafUO0-180">
          <mxGeometry width="30" height="30" as="geometry">
            <mxRectangle width="30" height="30" as="alternateBounds" />
          </mxGeometry>
        </mxCell>
        <mxCell id="FiGZa5fCqcaI1ObafUO0-182" value="created_at" style="shape=partialRectangle;connectable=0;fillColor=none;top=0;left=0;bottom=0;right=0;align=left;spacingLeft=6;overflow=hidden;whiteSpace=wrap;html=1;hachureGap=4;strokeColor=#457B9D;fontFamily=Helvetica;fontColor=#1D3557;" vertex="1" parent="FiGZa5fCqcaI1ObafUO0-180">
          <mxGeometry x="30" width="150" height="30" as="geometry">
            <mxRectangle width="150" height="30" as="alternateBounds" />
          </mxGeometry>
        </mxCell>
        <mxCell id="FiGZa5fCqcaI1ObafUO0-115" value="Categories" style="shape=table;startSize=30;container=1;collapsible=1;childLayout=tableLayout;fixedRows=1;rowLines=0;fontStyle=1;align=center;resizeLast=1;html=1;hachureGap=4;fontFamily=Helvetica;rounded=1;" vertex="1" parent="1">
          <mxGeometry x="-584" y="60" width="180" height="120" as="geometry" />
        </mxCell>
        <mxCell id="FiGZa5fCqcaI1ObafUO0-116" value="" style="shape=tableRow;horizontal=0;startSize=0;swimlaneHead=0;swimlaneBody=0;fillColor=none;collapsible=0;dropTarget=0;points=[[0,0.5],[1,0.5]];portConstraint=eastwest;top=0;left=0;right=0;bottom=1;hachureGap=4;strokeColor=#457B9D;fontFamily=Helvetica;fontColor=#1D3557;" vertex="1" parent="FiGZa5fCqcaI1ObafUO0-115">
          <mxGeometry y="30" width="180" height="30" as="geometry" />
        </mxCell>
        <mxCell id="FiGZa5fCqcaI1ObafUO0-117" value="PK" style="shape=partialRectangle;connectable=0;fillColor=none;top=0;left=0;bottom=0;right=0;fontStyle=1;overflow=hidden;whiteSpace=wrap;html=1;hachureGap=4;strokeColor=#457B9D;fontFamily=Helvetica;fontColor=#1D3557;" vertex="1" parent="FiGZa5fCqcaI1ObafUO0-116">
          <mxGeometry width="30" height="30" as="geometry">
            <mxRectangle width="30" height="30" as="alternateBounds" />
          </mxGeometry>
        </mxCell>
        <mxCell id="FiGZa5fCqcaI1ObafUO0-118" value="category_id" style="shape=partialRectangle;connectable=0;fillColor=none;top=0;left=0;bottom=0;right=0;align=left;spacingLeft=6;fontStyle=5;overflow=hidden;whiteSpace=wrap;html=1;hachureGap=4;strokeColor=#457B9D;fontFamily=Helvetica;fontColor=#1D3557;" vertex="1" parent="FiGZa5fCqcaI1ObafUO0-116">
          <mxGeometry x="30" width="150" height="30" as="geometry">
            <mxRectangle width="150" height="30" as="alternateBounds" />
          </mxGeometry>
        </mxCell>
        <mxCell id="FiGZa5fCqcaI1ObafUO0-119" value="" style="shape=tableRow;horizontal=0;startSize=0;swimlaneHead=0;swimlaneBody=0;fillColor=none;collapsible=0;dropTarget=0;points=[[0,0.5],[1,0.5]];portConstraint=eastwest;top=0;left=0;right=0;bottom=0;hachureGap=4;strokeColor=#457B9D;fontFamily=Helvetica;fontColor=#1D3557;" vertex="1" parent="FiGZa5fCqcaI1ObafUO0-115">
          <mxGeometry y="60" width="180" height="30" as="geometry" />
        </mxCell>
        <mxCell id="FiGZa5fCqcaI1ObafUO0-120" value="" style="shape=partialRectangle;connectable=0;fillColor=none;top=0;left=0;bottom=0;right=0;editable=1;overflow=hidden;whiteSpace=wrap;html=1;hachureGap=4;strokeColor=#457B9D;fontFamily=Helvetica;fontColor=#1D3557;" vertex="1" parent="FiGZa5fCqcaI1ObafUO0-119">
          <mxGeometry width="30" height="30" as="geometry">
            <mxRectangle width="30" height="30" as="alternateBounds" />
          </mxGeometry>
        </mxCell>
        <mxCell id="FiGZa5fCqcaI1ObafUO0-121" value="name" style="shape=partialRectangle;connectable=0;fillColor=none;top=0;left=0;bottom=0;right=0;align=left;spacingLeft=6;overflow=hidden;whiteSpace=wrap;html=1;hachureGap=4;strokeColor=#457B9D;fontFamily=Helvetica;fontColor=#1D3557;" vertex="1" parent="FiGZa5fCqcaI1ObafUO0-119">
          <mxGeometry x="30" width="150" height="30" as="geometry">
            <mxRectangle width="150" height="30" as="alternateBounds" />
          </mxGeometry>
        </mxCell>
        <mxCell id="FiGZa5fCqcaI1ObafUO0-122" value="" style="shape=tableRow;horizontal=0;startSize=0;swimlaneHead=0;swimlaneBody=0;fillColor=none;collapsible=0;dropTarget=0;points=[[0,0.5],[1,0.5]];portConstraint=eastwest;top=0;left=0;right=0;bottom=0;hachureGap=4;strokeColor=#457B9D;fontFamily=Helvetica;fontColor=#1D3557;" vertex="1" parent="FiGZa5fCqcaI1ObafUO0-115">
          <mxGeometry y="90" width="180" height="30" as="geometry" />
        </mxCell>
        <mxCell id="FiGZa5fCqcaI1ObafUO0-123" value="" style="shape=partialRectangle;connectable=0;fillColor=none;top=0;left=0;bottom=0;right=0;editable=1;overflow=hidden;whiteSpace=wrap;html=1;hachureGap=4;strokeColor=#457B9D;fontFamily=Helvetica;fontColor=#1D3557;" vertex="1" parent="FiGZa5fCqcaI1ObafUO0-122">
          <mxGeometry width="30" height="30" as="geometry">
            <mxRectangle width="30" height="30" as="alternateBounds" />
          </mxGeometry>
        </mxCell>
        <mxCell id="FiGZa5fCqcaI1ObafUO0-124" value="parent_category_id" style="shape=partialRectangle;connectable=0;fillColor=none;top=0;left=0;bottom=0;right=0;align=left;spacingLeft=6;overflow=hidden;whiteSpace=wrap;html=1;hachureGap=4;strokeColor=#457B9D;fontFamily=Helvetica;fontColor=#1D3557;" vertex="1" parent="FiGZa5fCqcaI1ObafUO0-122">
          <mxGeometry x="30" width="150" height="30" as="geometry">
            <mxRectangle width="150" height="30" as="alternateBounds" />
          </mxGeometry>
        </mxCell>
        <mxCell id="FiGZa5fCqcaI1ObafUO0-131" value="Favorutes" style="shape=table;startSize=30;container=1;collapsible=1;childLayout=tableLayout;fixedRows=1;rowLines=0;fontStyle=1;align=center;resizeLast=1;html=1;hachureGap=4;fontFamily=Helvetica;rounded=1;" vertex="1" parent="1">
          <mxGeometry x="-100" y="210" width="180" height="150" as="geometry" />
        </mxCell>
        <mxCell id="FiGZa5fCqcaI1ObafUO0-132" value="" style="shape=tableRow;horizontal=0;startSize=0;swimlaneHead=0;swimlaneBody=0;fillColor=none;collapsible=0;dropTarget=0;points=[[0,0.5],[1,0.5]];portConstraint=eastwest;top=0;left=0;right=0;bottom=1;hachureGap=4;strokeColor=#457B9D;fontFamily=Helvetica;fontColor=#1D3557;" vertex="1" parent="FiGZa5fCqcaI1ObafUO0-131">
          <mxGeometry y="30" width="180" height="30" as="geometry" />
        </mxCell>
        <mxCell id="FiGZa5fCqcaI1ObafUO0-133" value="PK" style="shape=partialRectangle;connectable=0;fillColor=none;top=0;left=0;bottom=0;right=0;fontStyle=1;overflow=hidden;whiteSpace=wrap;html=1;hachureGap=4;strokeColor=#457B9D;fontFamily=Helvetica;fontColor=#1D3557;" vertex="1" parent="FiGZa5fCqcaI1ObafUO0-132">
          <mxGeometry width="30" height="30" as="geometry">
            <mxRectangle width="30" height="30" as="alternateBounds" />
          </mxGeometry>
        </mxCell>
        <mxCell id="FiGZa5fCqcaI1ObafUO0-134" value="favourite_id" style="shape=partialRectangle;connectable=0;fillColor=none;top=0;left=0;bottom=0;right=0;align=left;spacingLeft=6;fontStyle=5;overflow=hidden;whiteSpace=wrap;html=1;hachureGap=4;strokeColor=#457B9D;fontFamily=Helvetica;fontColor=#1D3557;" vertex="1" parent="FiGZa5fCqcaI1ObafUO0-132">
          <mxGeometry x="30" width="150" height="30" as="geometry">
            <mxRectangle width="150" height="30" as="alternateBounds" />
          </mxGeometry>
        </mxCell>
        <mxCell id="FiGZa5fCqcaI1ObafUO0-135" value="" style="shape=tableRow;horizontal=0;startSize=0;swimlaneHead=0;swimlaneBody=0;fillColor=none;collapsible=0;dropTarget=0;points=[[0,0.5],[1,0.5]];portConstraint=eastwest;top=0;left=0;right=0;bottom=0;hachureGap=4;strokeColor=#457B9D;fontFamily=Helvetica;fontColor=#1D3557;" vertex="1" parent="FiGZa5fCqcaI1ObafUO0-131">
          <mxGeometry y="60" width="180" height="30" as="geometry" />
        </mxCell>
        <mxCell id="FiGZa5fCqcaI1ObafUO0-136" value="FK" style="shape=partialRectangle;connectable=0;fillColor=none;top=0;left=0;bottom=0;right=0;editable=1;overflow=hidden;whiteSpace=wrap;html=1;hachureGap=4;strokeColor=#457B9D;fontFamily=Helvetica;fontColor=#1D3557;" vertex="1" parent="FiGZa5fCqcaI1ObafUO0-135">
          <mxGeometry width="30" height="30" as="geometry">
            <mxRectangle width="30" height="30" as="alternateBounds" />
          </mxGeometry>
        </mxCell>
        <mxCell id="FiGZa5fCqcaI1ObafUO0-137" value="user_id" style="shape=partialRectangle;connectable=0;fillColor=none;top=0;left=0;bottom=0;right=0;align=left;spacingLeft=6;overflow=hidden;whiteSpace=wrap;html=1;hachureGap=4;strokeColor=#457B9D;fontFamily=Helvetica;fontColor=#1D3557;" vertex="1" parent="FiGZa5fCqcaI1ObafUO0-135">
          <mxGeometry x="30" width="150" height="30" as="geometry">
            <mxRectangle width="150" height="30" as="alternateBounds" />
          </mxGeometry>
        </mxCell>
        <mxCell id="FiGZa5fCqcaI1ObafUO0-138" value="" style="shape=tableRow;horizontal=0;startSize=0;swimlaneHead=0;swimlaneBody=0;fillColor=none;collapsible=0;dropTarget=0;points=[[0,0.5],[1,0.5]];portConstraint=eastwest;top=0;left=0;right=0;bottom=0;hachureGap=4;strokeColor=#457B9D;fontFamily=Helvetica;fontColor=#1D3557;" vertex="1" parent="FiGZa5fCqcaI1ObafUO0-131">
          <mxGeometry y="90" width="180" height="30" as="geometry" />
        </mxCell>
        <mxCell id="FiGZa5fCqcaI1ObafUO0-139" value="FK" style="shape=partialRectangle;connectable=0;fillColor=none;top=0;left=0;bottom=0;right=0;editable=1;overflow=hidden;whiteSpace=wrap;html=1;hachureGap=4;strokeColor=#457B9D;fontFamily=Helvetica;fontColor=#1D3557;" vertex="1" parent="FiGZa5fCqcaI1ObafUO0-138">
          <mxGeometry width="30" height="30" as="geometry">
            <mxRectangle width="30" height="30" as="alternateBounds" />
          </mxGeometry>
        </mxCell>
        <mxCell id="FiGZa5fCqcaI1ObafUO0-140" value="product_id" style="shape=partialRectangle;connectable=0;fillColor=none;top=0;left=0;bottom=0;right=0;align=left;spacingLeft=6;overflow=hidden;whiteSpace=wrap;html=1;hachureGap=4;strokeColor=#457B9D;fontFamily=Helvetica;fontColor=#1D3557;" vertex="1" parent="FiGZa5fCqcaI1ObafUO0-138">
          <mxGeometry x="30" width="150" height="30" as="geometry">
            <mxRectangle width="150" height="30" as="alternateBounds" />
          </mxGeometry>
        </mxCell>
        <mxCell id="FiGZa5fCqcaI1ObafUO0-141" value="" style="shape=tableRow;horizontal=0;startSize=0;swimlaneHead=0;swimlaneBody=0;fillColor=none;collapsible=0;dropTarget=0;points=[[0,0.5],[1,0.5]];portConstraint=eastwest;top=0;left=0;right=0;bottom=0;hachureGap=4;strokeColor=#457B9D;fontFamily=Helvetica;fontColor=#1D3557;" vertex="1" parent="FiGZa5fCqcaI1ObafUO0-131">
          <mxGeometry y="120" width="180" height="30" as="geometry" />
        </mxCell>
        <mxCell id="FiGZa5fCqcaI1ObafUO0-142" value="" style="shape=partialRectangle;connectable=0;fillColor=none;top=0;left=0;bottom=0;right=0;editable=1;overflow=hidden;whiteSpace=wrap;html=1;hachureGap=4;strokeColor=#457B9D;fontFamily=Helvetica;fontColor=#1D3557;" vertex="1" parent="FiGZa5fCqcaI1ObafUO0-141">
          <mxGeometry width="30" height="30" as="geometry">
            <mxRectangle width="30" height="30" as="alternateBounds" />
          </mxGeometry>
        </mxCell>
        <mxCell id="FiGZa5fCqcaI1ObafUO0-143" value="added_at" style="shape=partialRectangle;connectable=0;fillColor=none;top=0;left=0;bottom=0;right=0;align=left;spacingLeft=6;overflow=hidden;whiteSpace=wrap;html=1;hachureGap=4;strokeColor=#457B9D;fontFamily=Helvetica;fontColor=#1D3557;" vertex="1" parent="FiGZa5fCqcaI1ObafUO0-141">
          <mxGeometry x="30" width="150" height="30" as="geometry">
            <mxRectangle width="150" height="30" as="alternateBounds" />
          </mxGeometry>
        </mxCell>
        <mxCell id="FiGZa5fCqcaI1ObafUO0-147" value="Reviews" style="shape=table;startSize=30;container=1;collapsible=1;childLayout=tableLayout;fixedRows=1;rowLines=0;fontStyle=1;align=center;resizeLast=1;html=1;hachureGap=4;fontFamily=Helvetica;rounded=1;" vertex="1" parent="1">
          <mxGeometry x="-80" y="414" width="180" height="210" as="geometry" />
        </mxCell>
        <mxCell id="FiGZa5fCqcaI1ObafUO0-148" value="" style="shape=tableRow;horizontal=0;startSize=0;swimlaneHead=0;swimlaneBody=0;fillColor=none;collapsible=0;dropTarget=0;points=[[0,0.5],[1,0.5]];portConstraint=eastwest;top=0;left=0;right=0;bottom=1;hachureGap=4;strokeColor=#457B9D;fontFamily=Helvetica;fontColor=#1D3557;" vertex="1" parent="FiGZa5fCqcaI1ObafUO0-147">
          <mxGeometry y="30" width="180" height="30" as="geometry" />
        </mxCell>
        <mxCell id="FiGZa5fCqcaI1ObafUO0-149" value="PK" style="shape=partialRectangle;connectable=0;fillColor=none;top=0;left=0;bottom=0;right=0;fontStyle=1;overflow=hidden;whiteSpace=wrap;html=1;hachureGap=4;strokeColor=#457B9D;fontFamily=Helvetica;fontColor=#1D3557;" vertex="1" parent="FiGZa5fCqcaI1ObafUO0-148">
          <mxGeometry width="30" height="30" as="geometry">
            <mxRectangle width="30" height="30" as="alternateBounds" />
          </mxGeometry>
        </mxCell>
        <mxCell id="FiGZa5fCqcaI1ObafUO0-150" value="review_id" style="shape=partialRectangle;connectable=0;fillColor=none;top=0;left=0;bottom=0;right=0;align=left;spacingLeft=6;fontStyle=5;overflow=hidden;whiteSpace=wrap;html=1;hachureGap=4;strokeColor=#457B9D;fontFamily=Helvetica;fontColor=#1D3557;" vertex="1" parent="FiGZa5fCqcaI1ObafUO0-148">
          <mxGeometry x="30" width="150" height="30" as="geometry">
            <mxRectangle width="150" height="30" as="alternateBounds" />
          </mxGeometry>
        </mxCell>
        <mxCell id="FiGZa5fCqcaI1ObafUO0-151" value="" style="shape=tableRow;horizontal=0;startSize=0;swimlaneHead=0;swimlaneBody=0;fillColor=none;collapsible=0;dropTarget=0;points=[[0,0.5],[1,0.5]];portConstraint=eastwest;top=0;left=0;right=0;bottom=0;hachureGap=4;strokeColor=#457B9D;fontFamily=Helvetica;fontColor=#1D3557;" vertex="1" parent="FiGZa5fCqcaI1ObafUO0-147">
          <mxGeometry y="60" width="180" height="30" as="geometry" />
        </mxCell>
        <mxCell id="FiGZa5fCqcaI1ObafUO0-152" value="FK" style="shape=partialRectangle;connectable=0;fillColor=none;top=0;left=0;bottom=0;right=0;editable=1;overflow=hidden;whiteSpace=wrap;html=1;hachureGap=4;strokeColor=#457B9D;fontFamily=Helvetica;fontColor=#1D3557;" vertex="1" parent="FiGZa5fCqcaI1ObafUO0-151">
          <mxGeometry width="30" height="30" as="geometry">
            <mxRectangle width="30" height="30" as="alternateBounds" />
          </mxGeometry>
        </mxCell>
        <mxCell id="FiGZa5fCqcaI1ObafUO0-153" value="user_id" style="shape=partialRectangle;connectable=0;fillColor=none;top=0;left=0;bottom=0;right=0;align=left;spacingLeft=6;overflow=hidden;whiteSpace=wrap;html=1;hachureGap=4;strokeColor=#457B9D;fontFamily=Helvetica;fontColor=#1D3557;" vertex="1" parent="FiGZa5fCqcaI1ObafUO0-151">
          <mxGeometry x="30" width="150" height="30" as="geometry">
            <mxRectangle width="150" height="30" as="alternateBounds" />
          </mxGeometry>
        </mxCell>
        <mxCell id="FiGZa5fCqcaI1ObafUO0-154" value="" style="shape=tableRow;horizontal=0;startSize=0;swimlaneHead=0;swimlaneBody=0;fillColor=none;collapsible=0;dropTarget=0;points=[[0,0.5],[1,0.5]];portConstraint=eastwest;top=0;left=0;right=0;bottom=0;hachureGap=4;strokeColor=#457B9D;fontFamily=Helvetica;fontColor=#1D3557;" vertex="1" parent="FiGZa5fCqcaI1ObafUO0-147">
          <mxGeometry y="90" width="180" height="30" as="geometry" />
        </mxCell>
        <mxCell id="FiGZa5fCqcaI1ObafUO0-155" value="FK" style="shape=partialRectangle;connectable=0;fillColor=none;top=0;left=0;bottom=0;right=0;editable=1;overflow=hidden;whiteSpace=wrap;html=1;hachureGap=4;strokeColor=#457B9D;fontFamily=Helvetica;fontColor=#1D3557;" vertex="1" parent="FiGZa5fCqcaI1ObafUO0-154">
          <mxGeometry width="30" height="30" as="geometry">
            <mxRectangle width="30" height="30" as="alternateBounds" />
          </mxGeometry>
        </mxCell>
        <mxCell id="FiGZa5fCqcaI1ObafUO0-156" value="product_id" style="shape=partialRectangle;connectable=0;fillColor=none;top=0;left=0;bottom=0;right=0;align=left;spacingLeft=6;overflow=hidden;whiteSpace=wrap;html=1;hachureGap=4;strokeColor=#457B9D;fontFamily=Helvetica;fontColor=#1D3557;" vertex="1" parent="FiGZa5fCqcaI1ObafUO0-154">
          <mxGeometry x="30" width="150" height="30" as="geometry">
            <mxRectangle width="150" height="30" as="alternateBounds" />
          </mxGeometry>
        </mxCell>
        <mxCell id="FiGZa5fCqcaI1ObafUO0-157" value="" style="shape=tableRow;horizontal=0;startSize=0;swimlaneHead=0;swimlaneBody=0;fillColor=none;collapsible=0;dropTarget=0;points=[[0,0.5],[1,0.5]];portConstraint=eastwest;top=0;left=0;right=0;bottom=0;hachureGap=4;strokeColor=#457B9D;fontFamily=Helvetica;fontColor=#1D3557;" vertex="1" parent="FiGZa5fCqcaI1ObafUO0-147">
          <mxGeometry y="120" width="180" height="30" as="geometry" />
        </mxCell>
        <mxCell id="FiGZa5fCqcaI1ObafUO0-158" value="" style="shape=partialRectangle;connectable=0;fillColor=none;top=0;left=0;bottom=0;right=0;editable=1;overflow=hidden;whiteSpace=wrap;html=1;hachureGap=4;strokeColor=#457B9D;fontFamily=Helvetica;fontColor=#1D3557;" vertex="1" parent="FiGZa5fCqcaI1ObafUO0-157">
          <mxGeometry width="30" height="30" as="geometry">
            <mxRectangle width="30" height="30" as="alternateBounds" />
          </mxGeometry>
        </mxCell>
        <mxCell id="FiGZa5fCqcaI1ObafUO0-159" value="rating" style="shape=partialRectangle;connectable=0;fillColor=none;top=0;left=0;bottom=0;right=0;align=left;spacingLeft=6;overflow=hidden;whiteSpace=wrap;html=1;hachureGap=4;strokeColor=#457B9D;fontFamily=Helvetica;fontColor=#1D3557;" vertex="1" parent="FiGZa5fCqcaI1ObafUO0-157">
          <mxGeometry x="30" width="150" height="30" as="geometry">
            <mxRectangle width="150" height="30" as="alternateBounds" />
          </mxGeometry>
        </mxCell>
        <mxCell id="FiGZa5fCqcaI1ObafUO0-160" value="" style="shape=tableRow;horizontal=0;startSize=0;swimlaneHead=0;swimlaneBody=0;fillColor=none;collapsible=0;dropTarget=0;points=[[0,0.5],[1,0.5]];portConstraint=eastwest;top=0;left=0;right=0;bottom=0;hachureGap=4;strokeColor=#457B9D;fontFamily=Helvetica;fontColor=#1D3557;" vertex="1" parent="FiGZa5fCqcaI1ObafUO0-147">
          <mxGeometry y="150" width="180" height="30" as="geometry" />
        </mxCell>
        <mxCell id="FiGZa5fCqcaI1ObafUO0-161" value="" style="shape=partialRectangle;connectable=0;fillColor=none;top=0;left=0;bottom=0;right=0;editable=1;overflow=hidden;whiteSpace=wrap;html=1;hachureGap=4;strokeColor=#457B9D;fontFamily=Helvetica;fontColor=#1D3557;" vertex="1" parent="FiGZa5fCqcaI1ObafUO0-160">
          <mxGeometry width="30" height="30" as="geometry">
            <mxRectangle width="30" height="30" as="alternateBounds" />
          </mxGeometry>
        </mxCell>
        <mxCell id="FiGZa5fCqcaI1ObafUO0-162" value="comment" style="shape=partialRectangle;connectable=0;fillColor=none;top=0;left=0;bottom=0;right=0;align=left;spacingLeft=6;overflow=hidden;whiteSpace=wrap;html=1;hachureGap=4;strokeColor=#457B9D;fontFamily=Helvetica;fontColor=#1D3557;" vertex="1" parent="FiGZa5fCqcaI1ObafUO0-160">
          <mxGeometry x="30" width="150" height="30" as="geometry">
            <mxRectangle width="150" height="30" as="alternateBounds" />
          </mxGeometry>
        </mxCell>
        <mxCell id="FiGZa5fCqcaI1ObafUO0-163" value="" style="shape=tableRow;horizontal=0;startSize=0;swimlaneHead=0;swimlaneBody=0;fillColor=none;collapsible=0;dropTarget=0;points=[[0,0.5],[1,0.5]];portConstraint=eastwest;top=0;left=0;right=0;bottom=0;hachureGap=4;strokeColor=#457B9D;fontFamily=Helvetica;fontColor=#1D3557;" vertex="1" parent="FiGZa5fCqcaI1ObafUO0-147">
          <mxGeometry y="180" width="180" height="30" as="geometry" />
        </mxCell>
        <mxCell id="FiGZa5fCqcaI1ObafUO0-164" value="" style="shape=partialRectangle;connectable=0;fillColor=none;top=0;left=0;bottom=0;right=0;editable=1;overflow=hidden;whiteSpace=wrap;html=1;hachureGap=4;strokeColor=#457B9D;fontFamily=Helvetica;fontColor=#1D3557;" vertex="1" parent="FiGZa5fCqcaI1ObafUO0-163">
          <mxGeometry width="30" height="30" as="geometry">
            <mxRectangle width="30" height="30" as="alternateBounds" />
          </mxGeometry>
        </mxCell>
        <mxCell id="FiGZa5fCqcaI1ObafUO0-165" value="created_at" style="shape=partialRectangle;connectable=0;fillColor=none;top=0;left=0;bottom=0;right=0;align=left;spacingLeft=6;overflow=hidden;whiteSpace=wrap;html=1;hachureGap=4;strokeColor=#457B9D;fontFamily=Helvetica;fontColor=#1D3557;" vertex="1" parent="FiGZa5fCqcaI1ObafUO0-163">
          <mxGeometry x="30" width="150" height="30" as="geometry">
            <mxRectangle width="150" height="30" as="alternateBounds" />
          </mxGeometry>
        </mxCell>
        <mxCell id="FiGZa5fCqcaI1ObafUO0-168" value="" style="edgeStyle=orthogonalEdgeStyle;fontSize=12;html=1;endArrow=ERoneToMany;rounded=0;exitX=1;exitY=0.5;exitDx=0;exitDy=0;entryX=0;entryY=0.5;entryDx=0;entryDy=0;" edge="1" parent="1" source="FiGZa5fCqcaI1ObafUO0-15" target="FiGZa5fCqcaI1ObafUO0-135">
          <mxGeometry width="100" height="100" relative="1" as="geometry">
            <mxPoint x="240" y="440" as="sourcePoint" />
            <mxPoint x="340" y="340" as="targetPoint" />
          </mxGeometry>
        </mxCell>
        <mxCell id="FiGZa5fCqcaI1ObafUO0-169" value="" style="edgeStyle=entityRelationEdgeStyle;fontSize=12;html=1;endArrow=ERoneToMany;rounded=0;entryX=0;entryY=0.5;entryDx=0;entryDy=0;exitX=1;exitY=0.5;exitDx=0;exitDy=0;" edge="1" parent="1" source="FiGZa5fCqcaI1ObafUO0-116" target="FiGZa5fCqcaI1ObafUO0-37">
          <mxGeometry width="100" height="100" relative="1" as="geometry">
            <mxPoint x="230" y="570" as="sourcePoint" />
            <mxPoint x="330" y="470" as="targetPoint" />
            <Array as="points">
              <mxPoint x="-650" y="370" />
              <mxPoint x="-550" y="350" />
            </Array>
          </mxGeometry>
        </mxCell>
        <mxCell id="FiGZa5fCqcaI1ObafUO0-170" value="" style="edgeStyle=entityRelationEdgeStyle;fontSize=12;html=1;endArrow=ERoneToMany;rounded=0;exitX=1;exitY=0.5;exitDx=0;exitDy=0;entryX=0;entryY=0.5;entryDx=0;entryDy=0;" edge="1" parent="1" source="FiGZa5fCqcaI1ObafUO0-31" target="FiGZa5fCqcaI1ObafUO0-138">
          <mxGeometry width="100" height="100" relative="1" as="geometry">
            <mxPoint x="240" y="540" as="sourcePoint" />
            <mxPoint x="340" y="440" as="targetPoint" />
          </mxGeometry>
        </mxCell>
        <mxCell id="FiGZa5fCqcaI1ObafUO0-171" value="" style="edgeStyle=orthogonalEdgeStyle;fontSize=12;html=1;endArrow=ERoneToMany;rounded=0;exitX=1;exitY=0.5;exitDx=0;exitDy=0;entryX=1;entryY=0.5;entryDx=0;entryDy=0;" edge="1" parent="1" source="FiGZa5fCqcaI1ObafUO0-15" target="FiGZa5fCqcaI1ObafUO0-151">
          <mxGeometry width="100" height="100" relative="1" as="geometry">
            <mxPoint x="230" y="620" as="sourcePoint" />
            <mxPoint x="330" y="520" as="targetPoint" />
            <Array as="points">
              <mxPoint x="170" y="105" />
              <mxPoint x="170" y="489" />
            </Array>
          </mxGeometry>
        </mxCell>
        <mxCell id="FiGZa5fCqcaI1ObafUO0-172" value="" style="edgeStyle=entityRelationEdgeStyle;fontSize=12;html=1;endArrow=ERoneToMany;rounded=0;exitX=1;exitY=0.5;exitDx=0;exitDy=0;entryX=0;entryY=0.5;entryDx=0;entryDy=0;" edge="1" parent="1" source="FiGZa5fCqcaI1ObafUO0-31" target="FiGZa5fCqcaI1ObafUO0-154">
          <mxGeometry width="100" height="100" relative="1" as="geometry">
            <mxPoint x="240" y="600" as="sourcePoint" />
            <mxPoint x="340" y="500" as="targetPoint" />
          </mxGeometry>
        </mxCell>
      </root>
    </mxGraphModel>
  </diagram>
  <diagram id="dNIxVR0alvjhGPv0WGiY" name="Страница — 3">
    <mxGraphModel dx="726" dy="1291" grid="1" gridSize="10" guides="1" tooltips="1" connect="1" arrows="1" fold="1" page="1" pageScale="1" pageWidth="1169" pageHeight="827" math="0" shadow="0">
      <root>
        <mxCell id="0" />
        <mxCell id="1" parent="0" />
        <mxCell id="YfRvQpI6DhpCe9fCnICZ-12" style="edgeStyle=orthogonalEdgeStyle;rounded=0;orthogonalLoop=1;jettySize=auto;html=1;exitX=1;exitY=0.5;exitDx=0;exitDy=0;entryX=0;entryY=0.5;entryDx=0;entryDy=0;" edge="1" parent="1" source="YfRvQpI6DhpCe9fCnICZ-1" target="YfRvQpI6DhpCe9fCnICZ-11">
          <mxGeometry relative="1" as="geometry" />
        </mxCell>
        <mxCell id="YfRvQpI6DhpCe9fCnICZ-18" style="edgeStyle=orthogonalEdgeStyle;rounded=0;orthogonalLoop=1;jettySize=auto;html=1;exitX=0.5;exitY=1;exitDx=0;exitDy=0;entryX=0;entryY=0.5;entryDx=0;entryDy=0;" edge="1" parent="1" source="YfRvQpI6DhpCe9fCnICZ-1" target="YfRvQpI6DhpCe9fCnICZ-17">
          <mxGeometry relative="1" as="geometry" />
        </mxCell>
        <mxCell id="YfRvQpI6DhpCe9fCnICZ-25" style="edgeStyle=orthogonalEdgeStyle;rounded=0;orthogonalLoop=1;jettySize=auto;html=1;exitX=0.5;exitY=0;exitDx=0;exitDy=0;entryX=0;entryY=0.5;entryDx=0;entryDy=0;" edge="1" parent="1" source="YfRvQpI6DhpCe9fCnICZ-1" target="YfRvQpI6DhpCe9fCnICZ-24">
          <mxGeometry relative="1" as="geometry" />
        </mxCell>
        <mxCell id="YfRvQpI6DhpCe9fCnICZ-1" value="&lt;font style=&quot;font-size: 34px;&quot;&gt;/&lt;/font&gt;" style="rounded=1;whiteSpace=wrap;html=1;arcSize=45;" vertex="1" parent="1">
          <mxGeometry x="50" y="354" width="60" height="60" as="geometry" />
        </mxCell>
        <mxCell id="YfRvQpI6DhpCe9fCnICZ-2" value="&lt;font style=&quot;font-size: 20px;&quot;&gt;index.html&lt;/font&gt;" style="rounded=1;whiteSpace=wrap;html=1;arcSize=45;" vertex="1" parent="1">
          <mxGeometry x="160" y="110" width="130" height="30" as="geometry" />
        </mxCell>
        <mxCell id="YfRvQpI6DhpCe9fCnICZ-3" value="&lt;font style=&quot;font-size: 20px;&quot;&gt;style.css&lt;/font&gt;" style="rounded=1;whiteSpace=wrap;html=1;arcSize=45;" vertex="1" parent="1">
          <mxGeometry x="160" y="150" width="130" height="30" as="geometry" />
        </mxCell>
        <mxCell id="YfRvQpI6DhpCe9fCnICZ-4" value="&lt;font style=&quot;font-size: 20px;&quot;&gt;script.js&lt;/font&gt;" style="rounded=1;whiteSpace=wrap;html=1;arcSize=45;" vertex="1" parent="1">
          <mxGeometry x="160" y="190" width="130" height="30" as="geometry" />
        </mxCell>
        <mxCell id="YfRvQpI6DhpCe9fCnICZ-5" value="&lt;font style=&quot;font-size: 20px;&quot;&gt;products.json&lt;/font&gt;" style="rounded=1;whiteSpace=wrap;html=1;arcSize=45;" vertex="1" parent="1">
          <mxGeometry x="160" y="230" width="130" height="30" as="geometry" />
        </mxCell>
        <mxCell id="YfRvQpI6DhpCe9fCnICZ-6" value="&lt;font style=&quot;font-size: 20px;&quot;&gt;reviews.json&lt;/font&gt;" style="rounded=1;whiteSpace=wrap;html=1;arcSize=45;" vertex="1" parent="1">
          <mxGeometry x="160" y="270" width="130" height="30" as="geometry" />
        </mxCell>
        <mxCell id="YfRvQpI6DhpCe9fCnICZ-7" value="" style="shape=curlyBracket;whiteSpace=wrap;html=1;rounded=1;labelPosition=left;verticalLabelPosition=middle;align=right;verticalAlign=middle;" vertex="1" parent="1">
          <mxGeometry x="120" y="110" width="20" height="200" as="geometry" />
        </mxCell>
        <mxCell id="YfRvQpI6DhpCe9fCnICZ-9" style="edgeStyle=orthogonalEdgeStyle;rounded=0;orthogonalLoop=1;jettySize=auto;html=1;exitX=0.5;exitY=0;exitDx=0;exitDy=0;entryX=0;entryY=0.5;entryDx=0;entryDy=0;entryPerimeter=0;" edge="1" parent="1" source="YfRvQpI6DhpCe9fCnICZ-1" target="YfRvQpI6DhpCe9fCnICZ-7">
          <mxGeometry relative="1" as="geometry" />
        </mxCell>
        <mxCell id="YfRvQpI6DhpCe9fCnICZ-11" value="&lt;font style=&quot;font-size: 20px;&quot;&gt;catalog/&lt;/font&gt;" style="rounded=1;whiteSpace=wrap;html=1;arcSize=45;fillColor=#fff2cc;strokeColor=#d6b656;" vertex="1" parent="1">
          <mxGeometry x="160" y="369" width="130" height="30" as="geometry" />
        </mxCell>
        <mxCell id="YfRvQpI6DhpCe9fCnICZ-13" value="&lt;font style=&quot;font-size: 20px;&quot;&gt;script.js&lt;/font&gt;" style="rounded=1;whiteSpace=wrap;html=1;arcSize=45;" vertex="1" parent="1">
          <mxGeometry x="370" y="384" width="130" height="30" as="geometry" />
        </mxCell>
        <mxCell id="YfRvQpI6DhpCe9fCnICZ-14" value="&lt;font style=&quot;font-size: 20px;&quot;&gt;catalog.html&lt;/font&gt;" style="rounded=1;whiteSpace=wrap;html=1;arcSize=45;" vertex="1" parent="1">
          <mxGeometry x="370" y="350" width="130" height="30" as="geometry" />
        </mxCell>
        <mxCell id="YfRvQpI6DhpCe9fCnICZ-15" value="" style="shape=curlyBracket;whiteSpace=wrap;html=1;rounded=1;labelPosition=left;verticalLabelPosition=middle;align=right;verticalAlign=middle;" vertex="1" parent="1">
          <mxGeometry x="340" y="349" width="20" height="70" as="geometry" />
        </mxCell>
        <mxCell id="YfRvQpI6DhpCe9fCnICZ-16" style="edgeStyle=orthogonalEdgeStyle;rounded=0;orthogonalLoop=1;jettySize=auto;html=1;exitX=1;exitY=0.5;exitDx=0;exitDy=0;entryX=0;entryY=0.499;entryDx=0;entryDy=0;entryPerimeter=0;" edge="1" parent="1" source="YfRvQpI6DhpCe9fCnICZ-11" target="YfRvQpI6DhpCe9fCnICZ-15">
          <mxGeometry relative="1" as="geometry" />
        </mxCell>
        <mxCell id="YfRvQpI6DhpCe9fCnICZ-17" value="&lt;font style=&quot;font-size: 20px;&quot;&gt;product/&lt;/font&gt;" style="rounded=1;whiteSpace=wrap;html=1;arcSize=45;fillColor=#fff2cc;strokeColor=#d6b656;" vertex="1" parent="1">
          <mxGeometry x="160" y="470" width="130" height="30" as="geometry" />
        </mxCell>
        <mxCell id="YfRvQpI6DhpCe9fCnICZ-19" value="&lt;font style=&quot;font-size: 20px;&quot;&gt;script.js&lt;/font&gt;" style="rounded=1;whiteSpace=wrap;html=1;arcSize=45;" vertex="1" parent="1">
          <mxGeometry x="370" y="485" width="130" height="30" as="geometry" />
        </mxCell>
        <mxCell id="YfRvQpI6DhpCe9fCnICZ-20" value="&lt;font style=&quot;font-size: 20px;&quot;&gt;product.html&lt;/font&gt;" style="rounded=1;whiteSpace=wrap;html=1;arcSize=45;" vertex="1" parent="1">
          <mxGeometry x="370" y="451" width="130" height="30" as="geometry" />
        </mxCell>
        <mxCell id="YfRvQpI6DhpCe9fCnICZ-21" value="" style="shape=curlyBracket;whiteSpace=wrap;html=1;rounded=1;labelPosition=left;verticalLabelPosition=middle;align=right;verticalAlign=middle;" vertex="1" parent="1">
          <mxGeometry x="340" y="450" width="20" height="70" as="geometry" />
        </mxCell>
        <mxCell id="YfRvQpI6DhpCe9fCnICZ-23" style="edgeStyle=orthogonalEdgeStyle;rounded=0;orthogonalLoop=1;jettySize=auto;html=1;exitX=1;exitY=0.5;exitDx=0;exitDy=0;entryX=0;entryY=0.5;entryDx=0;entryDy=0;entryPerimeter=0;" edge="1" parent="1" source="YfRvQpI6DhpCe9fCnICZ-17" target="YfRvQpI6DhpCe9fCnICZ-21">
          <mxGeometry relative="1" as="geometry" />
        </mxCell>
        <mxCell id="YfRvQpI6DhpCe9fCnICZ-24" value="&lt;font style=&quot;font-size: 20px;&quot;&gt;images/&lt;/font&gt;" style="rounded=1;whiteSpace=wrap;html=1;arcSize=45;fillColor=#fff2cc;strokeColor=#d6b656;" vertex="1" parent="1">
          <mxGeometry x="160" y="40" width="130" height="30" as="geometry" />
        </mxCell>
        <mxCell id="YfRvQpI6DhpCe9fCnICZ-27" value="" style="shape=curlyBracket;whiteSpace=wrap;html=1;rounded=1;labelPosition=left;verticalLabelPosition=middle;align=right;verticalAlign=middle;" vertex="1" parent="1">
          <mxGeometry x="340" y="20" width="20" height="70" as="geometry" />
        </mxCell>
        <mxCell id="YfRvQpI6DhpCe9fCnICZ-28" style="edgeStyle=orthogonalEdgeStyle;rounded=0;orthogonalLoop=1;jettySize=auto;html=1;exitX=1;exitY=0.5;exitDx=0;exitDy=0;entryX=0;entryY=0.499;entryDx=0;entryDy=0;entryPerimeter=0;" edge="1" parent="1" source="YfRvQpI6DhpCe9fCnICZ-24" target="YfRvQpI6DhpCe9fCnICZ-27">
          <mxGeometry relative="1" as="geometry" />
        </mxCell>
        <mxCell id="YfRvQpI6DhpCe9fCnICZ-30" value="&lt;span style=&quot;font-size: 20px;&quot;&gt;img/svg files&lt;/span&gt;" style="rounded=1;whiteSpace=wrap;html=1;arcSize=45;" vertex="1" parent="1">
          <mxGeometry x="360" y="40" width="130" height="30" as="geometry" />
        </mxCell>
      </root>
    </mxGraphModel>
  </diagram>
</mxfile>
